HIERARCHY
ROOT hip
{
	OFFSET	0.00  0.00  0.00 
	CHANNELS 6 Xposition Yposition Zposition Xrotation Zrotation Yrotation
	JOINT waist
	{
		OFFSET	0.000000 2.191865 -0.079388
		CHANNELS 3 Xrotation Zrotation Yrotation
		JOINT abdomen
		{
			OFFSET	0.000000 2.770984 0.119082
			CHANNELS 3 Xrotation Zrotation Yrotation
			JOINT chest
			{
				OFFSET	0.000000 2.879627 -0.290598
				CHANNELS 3 Xrotation Zrotation Yrotation
				JOINT neck
				{
					OFFSET	0.000000 12.342733 -1.613748
					CHANNELS 3 Xrotation Zrotation Yrotation
					JOINT head
					{
						OFFSET	0.000000 4.485597 1.807195
						CHANNELS 3 Xrotation Zrotation Yrotation
						End Site
						{
							OFFSET 0.000000 7.191734 2.024398
						}
					}
				}
				JOINT lCollar
				{
					OFFSET	1.858774 10.237258 -1.915852
					CHANNELS 3 Zrotation Yrotation Xrotation
					JOINT lShldr
					{
						OFFSET	6.103279 0.000102 -0.038601
						CHANNELS 3 Zrotation Yrotation Xrotation
						JOINT lForeArm
						{
							OFFSET	10.574100 -0.365985 -0.655940
							CHANNELS 3 Zrotation Yrotation Xrotation
							JOINT lHand
							{
								OFFSET	13.213392 -0.641131 0.276866
								CHANNELS 3 Zrotation Yrotation Xrotation
								JOINT lThumb1
								{
									OFFSET	1.920964 -1.225712 1.722395
									CHANNELS 3 Zrotation Yrotation Xrotation
									JOINT lThumb2
									{
										OFFSET	0.248544 -0.143036 0.768265
										CHANNELS 3 Zrotation Yrotation Xrotation
										JOINT lThumb3
										{
											OFFSET	0.628484 -0.225174 0.508305
											CHANNELS 3 Zrotation Yrotation Xrotation
											End Site
											{
												OFFSET 0.831712 -0.207978 0.609962
											}
										}
									}
								}
								JOINT lIndex1
								{
									OFFSET	5.093442 -0.710319 1.829884
									CHANNELS 3 Zrotation Yrotation Xrotation
									JOINT lIndex2
									{
										OFFSET	0.889470 -0.051998 0.127073
										CHANNELS 3 Zrotation Yrotation Xrotation
										JOINT lIndex3
										{
											OFFSET	0.889570 -0.155981 0.127073
											CHANNELS 3 Zrotation Yrotation Xrotation
											End Site
											{
												OFFSET 0.797115 -0.294470 0.076252
											}
										}
									}
								}
								JOINT lMid1
								{
									OFFSET	5.154641 -0.519844 0.864111
									CHANNELS 3 Zrotation Yrotation Xrotation
									JOINT lMid2
									{
										OFFSET	0.928821 -0.051992 0.050831
										CHANNELS 3 Zrotation Yrotation Xrotation
										JOINT lMid3
										{
											OFFSET	0.984253 -0.311865 0.050831
											CHANNELS 3 Zrotation Yrotation Xrotation
											End Site
											{
												OFFSET 0.779717 -0.606438 -0.050831
											}
										}
									}
								}
								JOINT lRing1
								{
									OFFSET	4.924408 -0.754930 -0.235503
									CHANNELS 3 Zrotation Yrotation Xrotation
									JOINT lRing2
									{
										OFFSET	0.981624 -0.036924 -0.108278
										CHANNELS 3 Zrotation Yrotation Xrotation
										JOINT lRing3
										{
											OFFSET	0.805613 -0.205247 -0.041717
											CHANNELS 3 Zrotation Yrotation Xrotation
											End Site
											{
												OFFSET 0.667431 -0.470481 -0.035991
											}
										}
									}
								}
								JOINT lPinky1
								{
									OFFSET	4.535460 -0.816635 -1.006206
									CHANNELS 3 Zrotation Yrotation Xrotation
									JOINT lPinky2
									{
										OFFSET	0.690596 -0.064334 -0.168800
										CHANNELS 3 Zrotation Yrotation Xrotation
										JOINT lPinky3
										{
											OFFSET	0.598039 -0.111176 -0.071973
											CHANNELS 3 Zrotation Yrotation Xrotation
											End Site
											{
												OFFSET 0.422025 -0.290925 -0.035981
											}
										}
									}
								}
							}
						}
					}
				}
				JOINT rCollar
				{
					OFFSET	-1.858774 10.237258 -1.915852
					CHANNELS 3 Zrotation Yrotation Xrotation
					JOINT rShldr
					{
						OFFSET	-6.103279 0.000102 -0.038601
						CHANNELS 3 Zrotation Yrotation Xrotation
						JOINT rForeArm
						{
							OFFSET	-10.574100 -0.365985 -0.655940
							CHANNELS 3 Zrotation Yrotation Xrotation
							JOINT rHand
							{
								OFFSET	-13.213392 -0.641131 0.276866
								CHANNELS 3 Zrotation Yrotation Xrotation
								JOINT rIndex1
								{
									OFFSET	-5.093442 -0.710319 1.829884
									CHANNELS 3 Zrotation Yrotation Xrotation
									JOINT rIndex2
									{
										OFFSET	-0.889470 -0.051998 0.127073
										CHANNELS 3 Zrotation Yrotation Xrotation
										JOINT rIndex3
										{
											OFFSET	-0.889570 -0.155981 0.127073
											CHANNELS 3 Zrotation Yrotation Xrotation
											End Site
											{
												OFFSET -0.797115 -0.294470 0.076252
											}
										}
									}
								}
								JOINT rThumb1
								{
									OFFSET	-1.920964 -1.225712 1.722395
									CHANNELS 3 Zrotation Yrotation Xrotation
									JOINT rThumb2
									{
										OFFSET	-0.248544 -0.143036 0.768265
										CHANNELS 3 Zrotation Yrotation Xrotation
										JOINT rThumb3
										{
											OFFSET	-0.628484 -0.225174 0.508305
											CHANNELS 3 Zrotation Yrotation Xrotation
											End Site
											{
												OFFSET -0.831712 -0.207978 0.609962
											}
										}
									}
								}
								JOINT rMid1
								{
									OFFSET	-5.154641 -0.519844 0.864111
									CHANNELS 3 Zrotation Yrotation Xrotation
									JOINT rMid2
									{
										OFFSET	-0.928821 -0.051992 0.050831
										CHANNELS 3 Zrotation Yrotation Xrotation
										JOINT rMid3
										{
											OFFSET	-0.984253 -0.311865 0.050831
											CHANNELS 3 Zrotation Yrotation Xrotation
											End Site
											{
												OFFSET -0.779717 -0.606438 -0.050831
											}
										}
									}
								}
								JOINT rRing1
								{
									OFFSET	-4.924408 -0.754930 -0.235503
									CHANNELS 3 Zrotation Yrotation Xrotation
									JOINT rRing2
									{
										OFFSET	-0.981624 -0.036924 -0.108278
										CHANNELS 3 Zrotation Yrotation Xrotation
										JOINT rRing3
										{
											OFFSET	-0.805613 -0.205247 -0.041717
											CHANNELS 3 Zrotation Yrotation Xrotation
											End Site
											{
												OFFSET -0.667431 -0.470481 -0.035991
											}
										}
									}
								}
								JOINT rPinky1
								{
									OFFSET	-4.535460 -0.816635 -1.006206
									CHANNELS 3 Zrotation Yrotation Xrotation
									JOINT rPinky2
									{
										OFFSET	-0.690596 -0.064334 -0.168800
										CHANNELS 3 Zrotation Yrotation Xrotation
										JOINT rPinky3
										{
											OFFSET	-0.598039 -0.111176 -0.071973
											CHANNELS 3 Zrotation Yrotation Xrotation
											End Site
											{
												OFFSET -0.422025 -0.290925 -0.035981
											}
										}
									}
								}
							}
						}
					}
				}
			}
		}
	}
	JOINT lThigh
	{
		OFFSET	5.761895 -0.730553 0.000101
		CHANNELS 3 Xrotation Zrotation Yrotation
		JOINT lShin
		{
			OFFSET	-1.171020 -18.459274 1.627449
			CHANNELS 3 Xrotation Zrotation Yrotation
			JOINT lFoot
			{
				OFFSET	-0.883715 -16.872776 -3.357785
				CHANNELS 3 Xrotation Zrotation Yrotation
				JOINT lToe
				{
					OFFSET	1.287613 -2.778491 2.836049
					CHANNELS 3 Xrotation Yrotation Zrotation
					End Site
					{
						OFFSET 1.362641 -0.436631 3.828194
					}
				}
			}
		}
	}
	JOINT rThigh
	{
		OFFSET	-5.761895 -0.730553 0.000101
		CHANNELS 3 Xrotation Zrotation Yrotation
		JOINT rShin
		{
			OFFSET	1.171020 -18.459274 1.627449
			CHANNELS 3 Xrotation Zrotation Yrotation
			JOINT rFoot
			{
				OFFSET	0.883715 -16.872776 -3.357785
				CHANNELS 3 Xrotation Zrotation Yrotation
				JOINT rToe
				{
					OFFSET	-1.287613 -2.778491 2.836049
					CHANNELS 3 Xrotation Yrotation Zrotation
					End Site
					{
						OFFSET -1.362641 -0.436631 3.828194
					}
				}
			}
		}
	}
}
MOTION
Frames:     6
Frame Time: 0.033333
0.000000 36.980892 -0.646068 3.522473 3.129399 -9.447464 -11.971832 -0.406062 5.363904 6.591678 -8.098729 9.900389 0.263868 -3.684945 9.777943 8.390375 -0.792289 1.456320 -21.240713 2.735885 -12.822687 8.330910 6.079768 28.041647 -62.854519 3.188788 16.650915 -0.058002 -8.568475 13.924597 -9.295622 4.683293 0.967611 -12.627208 11.638309 20.162668 -3.293140 8.317117 -1.149148 29.196537 71.075630 38.871639 -54.965202 2.879369 9.509399 -95.296021 8.111157 8.823874 -72.485527 2.706130 5.538720 -69.186958 -8.841559 3.732819 -96.653351 5.565853 4.206008 -104.697495 2.775360 0.587669 -72.044975 -21.715500 -13.932326 -96.105949 9.247877 1.661926 -81.692566 -2.195071 -3.773858 -50.893284 -42.604092 -31.837162 -87.515419 -10.495460 -10.194331 -92.548531 -2.970826 -5.335632 -7.174642 3.546970 -45.889030 48.191654 -5.217075 34.751186 -20.959333 83.896408 -29.261963 5.421027 32.426079 -4.227765 54.933743 -2.902004 9.502135 95.265129 -8.128082 8.817611 72.455811 -2.719508 5.533987 12.593740 -11.672023 20.159027 3.256804 -8.355879 -1.150117 -29.337605 -71.104477 38.977356 69.155098 8.819241 3.724901 96.623543 -5.585068 4.202341 104.668701 -2.795059 0.590718 72.036667 21.704552 -13.928338 96.077934 -9.268408 1.657199 81.664215 2.171377 -3.769496 50.860275 42.577377 -31.794491 87.487709 10.471458 -10.199956 92.519615 2.956037 -5.337673 -27.236544 -9.493170 6.737123 -3.133463 5.351073 6.630356 15.966753 -1.498388 -1.383922 -25.130428 -2.416156 8.529934 28.854719 0.738418 -1.172089 1.145771 1.556235 12.935033 26.817430 -0.585979 -1.270697 -26.294020 2.603431 -8.918464 
0.000000 36.251797 -0.646068 2.541177 2.908984 -7.497485 -11.085154 -0.496407 4.849780 8.186666 -7.534261 7.632558 0.346558 -2.001369 8.598894 7.116067 -1.530630 2.838053 -20.040531 2.233400 -12.734578 6.886835 6.699346 25.922781 -64.380402 0.893413 16.417995 -0.027767 -13.858929 14.932581 -11.058492 5.787229 1.188527 -12.627208 11.638309 20.162668 -3.293140 8.317117 -1.149148 29.196537 71.075630 38.871639 -54.965202 2.879369 9.509399 -95.296021 8.111157 8.823874 -72.485527 2.706130 5.538720 -69.186958 -8.841559 3.732819 -96.653351 5.565853 4.206008 -104.697495 2.775360 0.587669 -72.044975 -21.715500 -13.932326 -96.105949 9.247877 1.661926 -81.692566 -2.195071 -3.773858 -50.893284 -42.604092 -31.837162 -87.515419 -10.495460 -10.194331 -92.548531 -2.970826 -5.335632 -5.183084 1.182393 -41.349892 52.844967 -3.441990 37.726955 -28.399513 85.251060 -29.550983 7.857493 27.992105 -3.403010 54.933743 -2.902004 9.502135 95.265129 -8.128082 8.817611 72.455811 -2.719508 5.533987 12.593740 -11.672023 20.159027 3.256804 -8.355879 -1.150117 -29.337605 -71.104477 38.977356 69.155098 8.819241 3.724901 96.623543 -5.585068 4.202341 104.668701 -2.795059 0.590718 72.036667 21.704552 -13.928338 96.077934 -9.268408 1.657199 81.664215 2.171377 -3.769496 50.860275 42.577377 -31.794491 87.487709 10.471458 -10.199956 92.519615 2.956037 -5.337673 -30.276178 -8.020547 5.525442 10.242866 0.729114 8.166242 12.995605 12.523677 -6.914362 -17.860207 -1.332459 6.166700 22.345114 0.907324 -4.997066 18.521763 1.723568 14.073538 31.940769 -0.145842 -5.830906 -23.004028 2.052630 -7.873899 
0.000000 36.062580 -0.646068 1.246681 2.565094 -5.208410 -9.915419 -0.581594 4.227847 10.254171 -6.624008 5.014657 0.501549 -0.216042 7.037612 5.414396 -2.211658 4.101231 -18.408316 1.293517 -11.991035 4.843360 7.619129 22.676634 -65.935898 -1.982071 17.271120 0.075901 -22.142241 15.532298 -13.374283 7.033390 1.453982 -12.627208 11.638309 20.162668 -3.293140 8.317117 -1.149148 29.196537 71.075630 38.871639 -54.965202 2.879369 9.509399 -95.296021 8.111157 8.823874 -72.485527 2.706130 5.538720 -69.186958 -8.841559 3.732819 -96.653351 5.565853 4.206008 -104.697495 2.775360 0.587669 -72.044975 -21.715500 -13.932326 -96.105949 9.247877 1.661926 -81.692566 -2.195071 -3.773858 -50.893284 -42.604092 -31.837162 -87.515419 -10.495460 -10.194331 -92.548531 -2.970826 -5.335632 -2.672257 -1.830936 -34.909370 56.875637 -0.972738 40.757645 -11.220019 79.678757 -8.278950 10.960617 21.901140 -2.370092 54.933743 -2.902004 9.502135 95.265129 -8.128082 8.817611 72.455811 -2.719508 5.533987 12.593740 -11.672023 20.159027 3.256804 -8.355879 -1.150117 -29.337605 -71.104477 38.977356 69.155098 8.819241 3.724901 96.623543 -5.585068 4.202341 104.668701 -2.795059 0.590718 72.036667 21.704552 -13.928338 96.077934 -9.268408 1.657199 81.664215 2.171377 -3.769496 50.860275 42.577377 -31.794491 87.487709 10.471458 -10.199956 92.519615 2.956037 -5.337673 -30.170567 -7.248125 4.375914 20.406107 -2.673887 8.527514 2.802490 12.901660 -10.890770 -9.654238 -0.484008 3.374925 20.452948 0.929033 -8.644341 26.056334 1.859146 14.573275 35.772873 0.659695 -9.520819 -19.395262 1.519899 -6.697266 
0.000000 36.639854 -0.646068 -0.166496 2.109598 -2.696703 -8.667494 -0.651040 3.517271 12.463583 -5.434977 2.194295 0.686392 1.573969 5.172538 3.586806 -2.790182 5.175217 -16.628235 0.471872 -10.783602 2.571933 8.576198 18.338497 -67.395966 -5.026136 18.928158 0.233667 -29.656488 15.696412 -15.857827 7.955987 1.685472 -12.627208 11.638309 20.162668 -3.293140 8.317117 -1.149148 29.196537 71.075630 38.871639 -54.965202 2.879369 9.509399 -95.296021 8.111157 8.823874 -72.485527 2.706130 5.538720 -69.186958 -8.841559 3.732819 -96.653351 5.565853 4.206008 -104.697495 2.775360 0.587669 -72.044975 -21.715500 -13.932326 -96.105949 9.247877 1.661926 -81.692566 -2.195071 -3.773858 -50.893284 -42.604092 -31.837162 -87.515419 -10.495460 -10.194331 -92.548531 -2.970826 -5.335632 -0.023287 -5.136290 -27.115366 59.917583 1.746432 43.584492 -3.083683 63.911503 1.109504 14.209314 14.877110 -1.282881 54.933743 -2.902004 9.502135 95.265129 -8.128082 8.817611 72.455811 -2.719508 5.533987 12.593740 -11.672023 20.159027 3.256804 -8.355879 -1.150117 -29.337605 -71.104477 38.977356 69.155098 8.819241 3.724901 96.623543 -5.585068 4.202341 104.668701 -2.795059 0.590718 72.036667 21.704552 -13.928338 96.077934 -9.268408 1.657199 81.664215 2.171377 -3.769496 50.860275 42.577377 -31.794491 87.487709 10.471458 -10.199956 92.519615 2.956037 -5.337673 -24.859699 -7.438630 2.612925 21.888741 -4.110439 8.579087 -4.016414 6.691198 -12.470068 -3.919970 -0.133317 1.372705 20.743790 1.591923 -11.910515 25.273275 1.859317 14.857052 34.956787 1.088565 -11.636840 -15.639802 1.046508 -5.443644 
0.000000 37.504704 -0.646068 -1.474228 1.564190 -0.078913 -7.507232 -0.694576 2.727391 14.479433 -4.020103 -0.710212 0.868053 3.288652 3.102370 1.895612 -3.255204 6.034723 -14.993041 0.283819 -9.304710 0.424859 9.298538 12.928262 -68.636803 -7.778077 21.115021 0.321954 -32.678810 15.419829 -18.111872 8.115432 1.805169 -12.627208 11.638309 20.162668 -3.293140 8.317117 -1.149148 29.196537 71.075630 38.871639 -54.965202 2.879369 9.509399 -95.296021 8.111157 8.823874 -72.485527 2.706130 5.538720 -69.186958 -8.841559 3.732819 -96.653351 5.565853 4.206008 -104.697495 2.775360 0.587669 -72.044975 -21.715500 -13.932326 -96.105949 9.247877 1.661926 -81.692566 -2.195071 -3.773858 -50.893284 -42.604092 -31.837162 -87.515419 -10.495460 -10.194331 -92.548531 -2.970826 -5.335632 2.390918 -8.347496 -18.505495 61.995937 4.298823 45.924397 -0.852266 42.264660 2.793139 17.124908 7.660950 -0.240579 54.933743 -2.902004 9.502135 95.265129 -8.128082 8.817611 72.455811 -2.719508 5.533987 12.593740 -11.672023 20.159027 3.256804 -8.355879 -1.150117 -29.337605 -71.104477 38.977356 69.155098 8.819241 3.724901 96.623543 -5.585068 4.202341 104.668701 -2.795059 0.590718 72.036667 21.704552 -13.928338 96.077934 -9.268408 1.657199 81.664215 2.171377 -3.769496 50.860275 42.577377 -31.794491 87.487709 10.471458 -10.199956 92.519615 2.956037 -5.337673 -17.674843 -7.729580 0.658164 19.697390 -4.078330 8.330073 -5.616342 3.427953 -12.452294 -3.064432 -0.098278 1.071677 18.824120 2.437870 -14.957649 25.446465 1.696531 14.718965 25.639772 0.128517 -12.512114 -11.939494 0.662268 -4.183791 
0.000000 38.240387 -0.646068 -2.461783 0.950784 2.517578 -6.600446 -0.700778 1.896819 15.971020 -2.436291 -3.562514 1.023564 4.851080 0.897236 0.612569 -3.570275 6.613400 -13.773536 0.484528 -7.527683 -1.225852 9.524606 6.459435 -69.583107 -9.798021 23.557327 0.237316 -29.242785 14.652927 -19.769207 7.050355 1.736597 -12.627208 11.638309 20.162668 -3.293140 8.317117 -1.149148 29.196537 71.075630 38.871639 -54.965202 2.879369 9.509399 -95.296021 8.111157 8.823874 -72.485527 2.706130 5.538720 -69.186958 -8.841559 3.732819 -96.653351 5.565853 4.206008 -104.697495 2.775360 0.587669 -72.044975 -21.715500 -13.932326 -96.105949 9.247877 1.661926 -81.692566 -2.195071 -3.773858 -50.893284 -42.604092 -31.837162 -87.515419 -10.495460 -10.194331 -92.548531 -2.970826 -5.335632 4.195273 -11.106756 -9.635698 63.145397 6.268982 47.504784 -0.174893 20.755583 2.161286 19.316853 1.017438 0.684252 54.933743 -2.902004 9.502135 95.265129 -8.128082 8.817611 72.455811 -2.719508 5.533987 12.593740 -11.672023 20.159027 3.256804 -8.355879 -1.150117 -29.337605 -71.104477 38.977356 69.155098 8.819241 3.724901 96.623543 -5.585068 4.202341 104.668701 -2.795059 0.590718 72.036667 21.704552 -13.928338 96.077934 -9.268408 1.657199 81.664215 2.171377 -3.769496 50.860275 42.577377 -31.794491 87.487709 10.471458 -10.199956 92.519615 2.956037 -5.337673 -10.353209 -7.644828 -1.187630 17.018705 -3.457874 7.441509 -5.714026 3.671661 -11.475315 -5.428174 -0.206042 1.902182 13.483368 2.927577 -17.694763 29.264076 1.360730 14.008328 10.705520 -1.383802 -12.319444 -8.489011 0.378467 -2.991259 
